<?xml version="1.0" encoding="utf-8"?>
<!-- Generator: Adobe Illustrator 17.0.0, SVG Export Plug-In . SVG Version: 6.00 Build 0)  -->
<!DOCTYPE svg PUBLIC "-//W3C//DTD SVG 1.1//EN" "http://www.w3.org/Graphics/SVG/1.1/DTD/svg11.dtd">
<svg version="1.1" id="レイヤー_1" xmlns="http://www.w3.org/2000/svg" xmlns:xlink="http://www.w3.org/1999/xlink" x="0px"
	 y="0px" width="32px" height="32px" viewBox="0 0 32 32" enable-background="new 0 0 32 32" xml:space="preserve">
<g>
	<path fill="#B3B3B3" stroke="#999999" stroke-miterlimit="10" d="M25.5,18.178c0,1.835-1.487,3.322-3.322,3.322H3.822
		c-1.835,0-3.322-1.487-3.322-3.322V7.822C0.5,5.987,1.987,4.5,3.822,4.5h18.356c1.835,0,3.322,1.487,3.322,3.322V18.178z"/>
	<path fill="#B3B3B3" stroke="#999999" stroke-miterlimit="10" d="M31.5,24.178c0,1.835-1.487,3.322-3.322,3.322H9.822
		c-1.835,0-3.322-1.487-3.322-3.322V13.822c0-1.835,1.487-3.322,3.322-3.322h18.356c1.835,0,3.322,1.487,3.322,3.322V24.178z"/>
</g>
</svg>
