<?xml version="1.0" encoding="utf-8"?>
<!-- Generator: Adobe Illustrator 15.0.0, SVG Export Plug-In . SVG Version: 6.00 Build 0)  -->
<!DOCTYPE svg PUBLIC "-//W3C//DTD SVG 1.1//EN" "http://www.w3.org/Graphics/SVG/1.1/DTD/svg11.dtd">
<svg version="1.1" id="Layer_1" xmlns="http://www.w3.org/2000/svg" xmlns:xlink="http://www.w3.org/1999/xlink" x="0px" y="0px"
	 width="80px" height="80px" viewBox="0 0 80 80" enable-background="new 0 0 80 80" xml:space="preserve">
<g>
	
		<circle fill="#FFFFFF" fill-opacity="0" stroke="#FFFFFF" stroke-miterlimit="10" stroke-dasharray="2.9775,1.985" cx="40" cy="40" r="39.5"/>
	<path fill="#FFFFFF" d="M57.486,29.866c3.908,5.905,6.119,11.325,4.938,12.106l-2.188,1.447c-1.18,0.781-5.305-3.372-9.213-9.277
		c-3.906-5.905-6.116-11.326-4.937-12.107l2.187-1.447C49.454,19.808,53.58,23.961,57.486,29.866z"/>
	<path fill="#FFFFFF" d="M25.503,36.5c0,1.416,5.74,2.564,12.82,2.564c7.079,0,12.819-1.148,12.819-2.564l-3.302,26
		c0,1.381-4.218,2.5-9.421,2.5c-5.204,0-9.422-1.119-9.422-2.5L25.503,36.5z"/>
	<path fill="#FFFFFF" d="M17.78,22.394c7.745-5.246,15.298-6.556,20.98,3.497c1.457-0.729,3.205-1.603,3.205-1.603l-3.06,9.47
		l-9.032-4.08c0,0,2.185-0.875,3.204-1.458C30.894,24.434,29.436,19.625,17.78,22.394z"/>
	<polygon fill="#FFFFFF" points="57.477,24.647 54.15,26.87 54.706,27.701 57.199,26.034 61.09,31.854 58.596,33.521 59.15,34.353 
		62.477,32.13 	"/>
</g>
</svg>
