<?xml version="1.0" encoding="utf-8"?>
<!-- Generator: Adobe Illustrator 17.0.0, SVG Export Plug-In . SVG Version: 6.00 Build 0)  -->
<!DOCTYPE svg PUBLIC "-//W3C//DTD SVG 1.1//EN" "http://www.w3.org/Graphics/SVG/1.1/DTD/svg11.dtd">
<svg version="1.1" id="レイヤー_1" xmlns="http://www.w3.org/2000/svg" xmlns:xlink="http://www.w3.org/1999/xlink" x="0px"
	 y="0px" width="100px" height="80px" viewBox="0 0 100 80" enable-background="new 0 0 100 80" xml:space="preserve">
<g>
	<rect fill="#29ABE2" width="100" height="80"/>
	<line stroke="#000000" stroke-miterlimit="10" x1="44.991" y1="46.672" x2="66.651" y2="57.869"/>
	<line stroke="#000000" stroke-miterlimit="10" x1="25.955" y1="24.277" x2="44.67" y2="35.522"/>
	<g>
		<path fill="#FFFFFF" stroke="#0071BC" stroke-miterlimit="10" d="M57.5,42.341c0,3.401-2.757,6.159-6.159,6.159H37.659
			c-3.401,0-6.159-2.757-6.159-6.159v-0.683c0-3.401,2.757-6.159,6.159-6.159h13.683c3.401,0,6.159,2.757,6.159,6.159V42.341z"/>
		<circle fill="#0071BC" cx="44.991" cy="46.672" r="4.674"/>
		<circle fill="#FFFFFF" stroke="#0071BC" stroke-miterlimit="10" cx="44.991" cy="35.474" r="4.674"/>
	</g>
	<g>
		<circle fill="#FFFFFF" stroke="#0071BC" stroke-miterlimit="10" cx="73.43" cy="63.554" r="10.187"/>
		<circle fill="#0071BC" cx="73.345" cy="72.426" r="4.674"/>
		<circle fill="#FFFFFF" stroke="#0071BC" stroke-miterlimit="10" cx="81.183" cy="57.869" r="4.674"/>
		<circle fill="#FFFFFF" stroke="#0071BC" stroke-miterlimit="10" cx="65.506" cy="57.869" r="4.674"/>
	</g>
	<g>
		<circle fill="#FFFFFF" stroke="#0071BC" stroke-miterlimit="10" cx="26.041" cy="15.404" r="10.187"/>
		<circle fill="#0071BC" cx="25.955" cy="24.277" r="4.674"/>
		<circle fill="#FFFFFF" stroke="#0071BC" stroke-miterlimit="10" cx="33.794" cy="9.72" r="4.674"/>
		<circle fill="#FFFFFF" stroke="#0071BC" stroke-miterlimit="10" cx="18.117" cy="9.72" r="4.674"/>
	</g>
</g>
</svg>
