<?xml version="1.0" encoding="utf-8"?>
<!-- Generator: Adobe Illustrator 17.0.0, SVG Export Plug-In . SVG Version: 6.00 Build 0)  -->
<!DOCTYPE svg PUBLIC "-//W3C//DTD SVG 1.1//EN" "http://www.w3.org/Graphics/SVG/1.1/DTD/svg11.dtd">
<svg version="1.1" id="レイヤー_1" xmlns="http://www.w3.org/2000/svg" xmlns:xlink="http://www.w3.org/1999/xlink" x="0px"
	 y="0px" width="360px" height="520px" viewBox="0 0 360 520" enable-background="new 0 0 360 520" xml:space="preserve">
<g>
	<path fill="#FFFFFF" stroke="#000000" stroke-miterlimit="10" d="M353.5,484.991c0,15.193-12.94,27.509-28.59,27.509H33.167
		c-15.65,0-28.667-12.316-28.667-27.509V32.143C4.5,16.95,17.518,4.5,33.167,4.5H324.91c15.65,0,28.59,12.45,28.59,27.643V484.991z"
		/>
	<path fill="#FFFFFF" stroke="#000000" stroke-miterlimit="10" d="M320.5,460.5c0,5.523-4.477,10-10,10h-263
		c-5.523,0-10-4.477-10-10v-417c0-5.523,4.477-10,10-10h263c5.523,0,10,4.477,10,10V460.5z"/>
	<circle fill="#FFFFFF" stroke="#000000" stroke-miterlimit="10" cx="181.69" cy="492.169" r="14.151"/>
	<circle cx="180.039" cy="20.519" r="3.5"/>
	<rect x="176.5" y="486.5" fill="#FFFFFF" stroke="#000000" stroke-miterlimit="10" width="10" height="11"/>
</g>
</svg>
